<?xml version="1.0" encoding="utf-8"?>
<svg viewBox="0 0 841.89 444.87" xmlns="http://www.w3.org/2000/svg">
  <g id="BG" style="" transform="matrix(0.954589, 0, 0, 0.722206, 17.781593, 61.346497)">
    <rect width="841.89" height="444.87" style="opacity: 0.8; paint-order: fill;"/>
  </g>
  <path d="M 340.391 165.893 Q 339.955 165.893 339.749 165.348 Q 339.543 164.802 339.543 164.148 Q 339.543 163.493 339.627 162.681 Q 339.712 161.869 339.882 160.463 L 340.924 151.324 L 337.894 152.027 Q 337.603 152.075 337.349 152.124 Q 337.094 152.172 336.949 152.172 Q 336.682 152.172 336.537 151.99 Q 336.391 151.809 336.415 151.469 Q 336.44 150.912 336.597 150.403 Q 336.755 149.894 336.997 149.554 Q 337.24 149.215 337.53 149.215 L 342.912 149.215 Q 344.779 149.215 345.882 149.142 Q 346.985 149.069 347.554 149.009 Q 348.124 148.948 348.391 148.948 Q 348.633 148.948 348.73 149.045 Q 348.827 149.142 348.851 149.433 Q 348.875 149.918 348.706 150.487 Q 348.536 151.057 348.269 151.457 Q 348.003 151.857 347.736 151.857 Q 347.566 151.857 347.166 151.784 Q 346.766 151.712 346.257 151.639 L 344.197 151.324 L 342.597 165.893 Z" transform="matrix(2.30268, 0, 0, 4.806772, -568.264648, -612.380676)" style="fill: rgb(118, 242, 247); line-height: 37.1289px; white-space: pre;"/>
  <path d="M 358.691 165.917 Q 358.012 165.917 357.176 164.96 Q 356.34 164.002 355.516 162.463 Q 354.691 160.923 353.94 159.154 Q 353.843 158.936 353.734 158.705 Q 353.625 158.475 353.625 158.233 Q 353.625 157.966 353.794 157.857 Q 353.964 157.748 354.158 157.724 Q 355.806 157.408 356.837 156.415 Q 357.867 155.421 357.867 153.869 Q 357.867 152.924 357.467 152.269 Q 357.067 151.615 356.182 151.263 Q 355.297 150.912 353.843 150.912 L 353.746 150.912 L 352.146 165.893 L 349.964 165.893 Q 349.479 165.893 349.31 165.505 Q 349.14 165.117 349.14 164.463 Q 349.14 163.978 349.213 163.372 L 350.764 149.215 Q 351.831 149.094 352.885 149.033 Q 353.94 148.972 354.982 148.972 Q 356.897 148.972 358.364 149.457 Q 359.831 149.942 360.643 150.96 Q 361.455 151.978 361.455 153.602 Q 361.455 154.815 360.97 155.724 Q 360.485 156.633 359.685 157.251 Q 358.885 157.869 357.964 158.257 Q 357.043 158.645 356.17 158.839 L 356.34 157.53 Q 357.188 159.275 358.012 160.487 Q 358.837 161.699 359.491 162.39 Q 360.146 163.081 360.485 163.372 Q 361.091 163.832 361.37 164.014 Q 361.649 164.196 361.649 164.414 Q 361.649 164.657 361.334 164.911 Q 361.018 165.166 360.534 165.396 Q 360.049 165.626 359.54 165.772 Q 359.031 165.917 358.691 165.917 Z" transform="matrix(2.30268, 0, 0, 4.806772, -568.264648, -612.380676)" style="fill: rgb(118, 242, 247); line-height: 37.1289px; white-space: pre;"/>
  <path d="M 362.421 166.038 Q 361.766 166.038 361.766 165.626 Q 361.766 165.432 361.96 164.996 L 369.135 150.5 Q 369.329 150.087 369.887 149.724 Q 370.445 149.36 371.22 149.106 Q 371.996 148.851 372.82 148.851 Q 373.063 148.851 373.257 148.984 Q 373.45 149.118 373.523 149.578 Q 373.935 152.366 374.517 155.118 Q 375.099 157.869 375.85 160.56 Q 376.19 161.699 376.432 162.402 Q 376.675 163.105 376.917 163.469 Q 377.184 163.832 377.39 164.063 Q 377.596 164.293 377.596 164.511 Q 377.596 164.754 377.281 165.02 Q 376.965 165.287 376.493 165.505 Q 376.02 165.723 375.535 165.857 Q 375.05 165.99 374.711 165.99 Q 374.153 165.99 373.596 165.032 Q 373.038 164.075 372.505 161.578 L 370.396 151.469 L 371.099 151.178 L 366.396 161.117 Q 366.081 161.796 365.948 162.257 Q 365.814 162.717 365.79 163.093 Q 365.766 163.469 365.693 163.954 Q 365.645 164.414 365.22 164.79 Q 364.796 165.166 364.227 165.444 Q 363.657 165.723 363.148 165.881 Q 362.639 166.038 362.421 166.038 Z M 365.523 161.093 L 365.523 159.154 L 374.541 159.154 L 374.541 161.093 Z" transform="matrix(2.30268, 0, 0, 4.806772, -568.264648, -612.380676)" style="fill: rgb(118, 242, 247); line-height: 37.1289px; white-space: pre;"/>
  <path d="M 382.761 166.038 Q 382.567 166.038 382.385 165.905 Q 382.203 165.772 382.131 165.287 Q 381.864 163.445 381.416 161.469 Q 380.967 159.493 380.434 157.517 Q 379.901 155.542 379.343 153.748 Q 379.052 152.706 378.81 152.209 Q 378.567 151.712 378.301 151.348 Q 378.034 150.984 377.755 150.742 Q 377.476 150.5 377.476 150.281 Q 377.476 150.015 377.84 149.772 Q 378.204 149.53 378.737 149.324 Q 379.27 149.118 379.816 149.009 Q 380.361 148.9 380.725 148.9 Q 381.185 148.9 381.525 149.312 Q 381.864 149.724 382.191 150.694 Q 382.519 151.663 382.882 153.336 L 385.137 163.445 L 383.949 163.735 L 388.652 153.796 Q 388.991 153.093 389.149 152.633 Q 389.306 152.172 389.379 151.772 Q 389.452 151.372 389.5 150.887 Q 389.549 150.427 389.985 150.063 Q 390.421 149.7 390.991 149.421 Q 391.561 149.142 392.082 148.997 Q 392.603 148.851 392.846 148.851 Q 393.549 148.851 393.549 149.288 Q 393.549 149.53 393.33 149.942 L 385.937 164.438 Q 385.767 164.778 385.319 165.154 Q 384.87 165.529 384.228 165.784 Q 383.585 166.038 382.761 166.038 Z" transform="matrix(2.30268, 0, 0, 4.806772, -568.264648, -612.380676)" style="fill: rgb(118, 242, 247); line-height: 37.1289px; white-space: pre;"/>
  <path d="M 394.879 165.99 Q 394.443 165.99 394.213 165.457 Q 393.982 164.923 393.982 164.269 Q 393.982 163.323 394.2 161.19 L 395.413 149.215 L 399.291 149.215 Q 400.988 149.215 402.03 149.154 Q 403.073 149.094 403.63 149.021 Q 404.188 148.948 404.43 148.948 Q 404.697 148.948 404.855 149.033 Q 405.012 149.118 405.012 149.481 Q 405.012 149.918 404.818 150.475 Q 404.624 151.033 404.333 151.445 Q 404.043 151.857 403.679 151.857 Q 403.437 151.857 402.843 151.76 Q 402.249 151.663 401.546 151.542 L 398.54 151.106 L 397.449 161.675 Q 397.4 162.208 397.4 162.729 Q 397.4 163.251 397.473 163.76 L 402.443 162.742 Q 402.879 162.645 403.23 162.572 Q 403.582 162.499 403.703 162.499 Q 404.043 162.499 404.043 162.935 Q 404.043 163.493 403.824 164.135 Q 403.606 164.778 403.23 165.238 Q 402.855 165.699 402.321 165.699 L 401.473 165.699 Q 398.758 165.699 397.134 165.844 Q 395.51 165.99 394.879 165.99 Z M 396.406 158.136 L 396.722 156.124 L 397.885 156.124 Q 398.928 156.124 399.825 156.051 Q 400.721 155.978 401.34 155.905 Q 401.958 155.833 402.103 155.833 Q 402.346 155.833 402.467 155.966 Q 402.588 156.099 402.588 156.318 Q 402.588 156.681 402.127 157.093 Q 401.667 157.505 400.94 157.784 Q 400.212 158.063 399.412 158.087 Z" transform="matrix(2.30268, 0, 0, 4.806772, -568.264648, -612.380676)" style="fill: rgb(118, 242, 247); line-height: 37.1289px; white-space: pre;"/>
  <path d="M 407.048 165.99 Q 406.612 165.99 406.382 165.457 Q 406.151 164.923 406.151 164.269 Q 406.151 163.323 406.37 161.19 L 407.654 148.851 L 409.739 148.851 Q 410.588 148.827 410.721 149.409 Q 410.854 149.991 410.685 151.469 L 409.57 161.699 Q 409.521 162.208 409.533 162.729 Q 409.545 163.251 409.618 163.76 L 414.612 162.62 Q 414.927 162.548 415.181 162.487 Q 415.436 162.426 415.533 162.426 Q 415.872 162.426 415.872 162.863 Q 415.872 163.42 415.654 164.087 Q 415.436 164.754 415.06 165.226 Q 414.684 165.699 414.151 165.699 L 413.303 165.699 Q 411.485 165.699 410.248 165.772 Q 409.012 165.844 408.248 165.917 Q 407.485 165.99 407.048 165.99 Z" transform="matrix(2.30268, 0, 0, 4.806772, -568.264648, -612.380676)" style="fill: rgb(118, 242, 247); line-height: 37.1289px; white-space: pre;"/>
  <path d="M 423.648 165.893 Q 423.212 165.893 423.042 165.505 Q 422.873 165.117 422.873 164.463 Q 422.873 163.978 422.945 163.372 L 424.497 149.239 Q 425.418 149.142 426.448 149.057 Q 427.479 148.972 428.715 148.972 Q 431.018 148.972 432.387 149.397 Q 433.757 149.821 434.375 150.657 Q 434.993 151.493 434.993 152.681 Q 434.993 154.087 434.169 155.13 Q 433.345 156.172 432.012 156.851 L 431.212 157.263 Q 430.557 157.578 430.048 157.784 Q 429.539 157.99 429.127 157.99 Q 428.594 157.99 428.109 157.663 Q 427.624 157.336 427.624 157.045 Q 427.624 156.827 427.733 156.742 Q 427.842 156.657 428.036 156.608 Q 428.86 156.39 429.709 155.954 Q 430.557 155.518 431.115 154.802 Q 431.672 154.087 431.672 153.021 Q 431.672 151.809 430.642 151.324 Q 429.612 150.839 427.503 150.839 L 426.363 161.845 Q 426.339 162.087 426.327 162.317 Q 426.315 162.548 426.315 162.79 Q 426.315 163.057 426.339 163.299 Q 426.363 163.542 426.388 163.808 Q 429.054 163.808 430.46 162.935 Q 431.866 162.063 431.866 160.269 Q 431.866 159.178 431.309 158.39 Q 430.751 157.602 429.927 157.287 L 431.624 156.39 Q 432.787 156.681 433.636 157.275 Q 434.484 157.869 434.945 158.669 Q 435.405 159.469 435.405 160.463 Q 435.405 161.99 434.654 163.178 Q 433.902 164.366 432.339 165.032 Q 430.775 165.699 428.424 165.699 Q 427.939 165.699 427.224 165.723 Q 426.509 165.747 425.769 165.796 Q 425.03 165.844 424.448 165.869 Q 423.867 165.893 423.648 165.893 Z" transform="matrix(2.30268, 0, 0, 4.806772, -568.264648, -612.380676)" style="fill: rgb(118, 242, 247); line-height: 37.1289px; white-space: pre;"/>
  <path d="M 438.193 165.99 Q 437.756 165.99 437.526 165.457 Q 437.296 164.923 437.296 164.269 Q 437.296 163.323 437.514 161.19 L 438.726 149.215 L 442.605 149.215 Q 444.301 149.215 445.344 149.154 Q 446.386 149.094 446.944 149.021 Q 447.501 148.948 447.744 148.948 Q 448.01 148.948 448.168 149.033 Q 448.325 149.118 448.325 149.481 Q 448.325 149.918 448.132 150.475 Q 447.938 151.033 447.647 151.445 Q 447.356 151.857 446.992 151.857 Q 446.75 151.857 446.156 151.76 Q 445.562 151.663 444.859 151.542 L 441.853 151.106 L 440.762 161.675 Q 440.714 162.208 440.714 162.729 Q 440.714 163.251 440.786 163.76 L 445.756 162.742 Q 446.192 162.645 446.544 162.572 Q 446.895 162.499 447.016 162.499 Q 447.356 162.499 447.356 162.935 Q 447.356 163.493 447.138 164.135 Q 446.919 164.778 446.544 165.238 Q 446.168 165.699 445.635 165.699 L 444.786 165.699 Q 442.071 165.699 440.447 165.844 Q 438.823 165.99 438.193 165.99 Z M 439.72 158.136 L 440.035 156.124 L 441.198 156.124 Q 442.241 156.124 443.138 156.051 Q 444.035 155.978 444.653 155.905 Q 445.271 155.833 445.417 155.833 Q 445.659 155.833 445.78 155.966 Q 445.901 156.099 445.901 156.318 Q 445.901 156.681 445.441 157.093 Q 444.98 157.505 444.253 157.784 Q 443.526 158.063 442.726 158.087 Z" transform="matrix(2.30268, 0, 0, 4.806772, -568.264648, -612.380676)" style="fill: rgb(118, 242, 247); line-height: 37.1289px; white-space: pre;"/>
  <path d="M 448.471 166.038 Q 447.816 166.038 447.816 165.626 Q 447.816 165.432 448.01 164.996 L 455.186 150.5 Q 455.38 150.087 455.937 149.724 Q 456.495 149.36 457.271 149.106 Q 458.046 148.851 458.87 148.851 Q 459.113 148.851 459.307 148.984 Q 459.501 149.118 459.573 149.578 Q 459.986 152.366 460.567 155.118 Q 461.149 157.869 461.901 160.56 Q 462.24 161.699 462.482 162.402 Q 462.725 163.105 462.967 163.469 Q 463.234 163.832 463.44 164.063 Q 463.646 164.293 463.646 164.511 Q 463.646 164.754 463.331 165.02 Q 463.016 165.287 462.543 165.505 Q 462.07 165.723 461.586 165.857 Q 461.101 165.99 460.761 165.99 Q 460.204 165.99 459.646 165.032 Q 459.089 164.075 458.555 161.578 L 456.446 151.469 L 457.149 151.178 L 452.446 161.117 Q 452.131 161.796 451.998 162.257 Q 451.865 162.717 451.84 163.093 Q 451.816 163.469 451.743 163.954 Q 451.695 164.414 451.271 164.79 Q 450.847 165.166 450.277 165.444 Q 449.707 165.723 449.198 165.881 Q 448.689 166.038 448.471 166.038 Z M 451.574 161.093 L 451.574 159.154 L 460.592 159.154 L 460.592 161.093 Z" transform="matrix(2.30268, 0, 0, 4.806772, -568.264648, -612.380676)" style="fill: rgb(118, 242, 247); line-height: 37.1289px; white-space: pre;"/>
  <path d="M 471.742 166.087 Q 469.681 166.087 468.13 165.275 Q 466.578 164.463 465.693 162.839 Q 464.808 161.214 464.808 158.839 Q 464.808 156.657 465.524 154.827 Q 466.239 152.996 467.523 151.651 Q 468.808 150.306 470.578 149.566 Q 472.348 148.827 474.505 148.827 Q 476.541 148.827 477.572 149.263 Q 478.602 149.7 478.602 150.887 Q 478.602 151.493 478.372 151.942 Q 478.141 152.39 477.85 152.39 Q 477.632 152.39 477.293 152.196 Q 476.953 152.003 476.638 151.833 Q 476.057 151.518 475.353 151.166 Q 474.65 150.815 473.608 150.815 Q 472.129 150.815 470.954 151.76 Q 469.778 152.706 469.087 154.402 Q 468.396 156.099 468.396 158.402 Q 468.396 160.317 468.917 161.59 Q 469.439 162.863 470.336 163.481 Q 471.232 164.099 472.348 164.099 Q 473.269 164.099 473.996 163.735 Q 474.723 163.372 475.281 162.887 Q 475.838 162.402 476.287 162.026 Q 476.735 161.651 477.099 161.651 Q 477.414 161.651 477.596 161.82 Q 477.778 161.99 477.778 162.378 Q 477.778 163.372 476.953 164.208 Q 476.129 165.044 474.772 165.566 Q 473.414 166.087 471.742 166.087 Z" transform="matrix(2.30268, 0, 0, 4.806772, -568.264648, -612.380676)" style="fill: rgb(118, 242, 247); line-height: 37.1289px; white-space: pre;"/>
  <path d="M 482.432 158.184 L 482.432 156.124 L 491.425 156.124 L 491.425 158.184 Z M 480.953 165.893 Q 480.541 165.893 480.286 165.566 Q 480.032 165.238 479.923 164.741 Q 479.814 164.245 479.814 163.76 Q 479.814 162.839 479.935 161.966 Q 480.056 161.093 480.153 160.026 L 481.316 148.851 L 483.207 148.851 Q 483.91 148.851 484.165 149.288 Q 484.419 149.724 484.419 150.378 Q 484.419 150.96 484.371 151.445 Q 484.322 151.93 484.238 152.596 Q 484.153 153.263 484.032 154.402 L 482.819 165.893 Z M 490.771 165.893 Q 490.359 165.893 490.104 165.566 Q 489.849 165.238 489.74 164.741 Q 489.631 164.245 489.631 163.76 Q 489.631 162.839 489.753 161.966 Q 489.874 161.093 489.971 160.026 L 491.134 148.851 L 493.025 148.851 Q 493.728 148.851 493.983 149.288 Q 494.237 149.724 494.237 150.378 Q 494.237 150.96 494.189 151.445 Q 494.14 151.93 494.055 152.596 Q 493.971 153.263 493.849 154.402 L 492.637 165.893 Z" transform="matrix(2.30268, 0, 0, 4.806772, -568.264648, -612.380676)" style="fill: rgb(118, 242, 247); line-height: 37.1289px; white-space: pre;"/>
  <path d="M 497.07 165.99 Q 496.634 165.99 496.403 165.457 Q 496.173 164.923 496.173 164.269 Q 496.173 163.323 496.391 161.19 L 497.603 149.215 L 501.482 149.215 Q 503.179 149.215 504.221 149.154 Q 505.264 149.094 505.821 149.021 Q 506.379 148.948 506.621 148.948 Q 506.888 148.948 507.045 149.033 Q 507.203 149.118 507.203 149.481 Q 507.203 149.918 507.009 150.475 Q 506.815 151.033 506.524 151.445 Q 506.233 151.857 505.87 151.857 Q 505.627 151.857 505.033 151.76 Q 504.439 151.663 503.736 151.542 L 500.73 151.106 L 499.64 161.675 Q 499.591 162.208 499.591 162.729 Q 499.591 163.251 499.664 163.76 L 504.633 162.742 Q 505.07 162.645 505.421 162.572 Q 505.773 162.499 505.894 162.499 Q 506.233 162.499 506.233 162.935 Q 506.233 163.493 506.015 164.135 Q 505.797 164.778 505.421 165.238 Q 505.045 165.699 504.512 165.699 L 503.664 165.699 Q 500.949 165.699 499.324 165.844 Q 497.7 165.99 497.07 165.99 Z M 498.597 158.136 L 498.912 156.124 L 500.076 156.124 Q 501.118 156.124 502.015 156.051 Q 502.912 155.978 503.53 155.905 Q 504.148 155.833 504.294 155.833 Q 504.536 155.833 504.658 155.966 Q 504.779 156.099 504.779 156.318 Q 504.779 156.681 504.318 157.093 Q 503.858 157.505 503.13 157.784 Q 502.403 158.063 501.603 158.087 Z" transform="matrix(2.30268, 0, 0, 4.806772, -568.264648, -612.380676)" style="fill: rgb(118, 242, 247); line-height: 37.1289px; white-space: pre;"/>
  <path d="M 512.197 166.014 Q 510.088 166.014 508.766 165.372 Q 507.445 164.729 507.445 163.614 Q 507.445 162.742 507.603 162.366 Q 507.76 161.99 508.076 161.99 Q 508.318 161.99 508.73 162.293 Q 509.142 162.596 509.736 162.972 Q 510.33 163.348 511.057 163.651 Q 511.784 163.954 512.657 163.954 Q 513.942 163.954 514.633 163.396 Q 515.324 162.839 515.324 161.845 Q 515.324 160.899 514.875 160.342 Q 514.427 159.784 513.457 159.154 L 511.809 158.087 Q 511.009 157.554 510.306 156.96 Q 509.603 156.366 509.166 155.554 Q 508.73 154.742 508.73 153.578 Q 508.73 152.075 509.518 151.009 Q 510.306 149.942 511.7 149.384 Q 513.094 148.827 514.912 148.827 Q 516.487 148.827 517.312 149.021 Q 518.136 149.215 518.439 149.591 Q 518.742 149.966 518.742 150.475 Q 518.742 151.154 518.536 151.578 Q 518.33 152.003 518.063 152.003 Q 517.869 152.003 517.59 151.857 Q 517.312 151.712 516.851 151.493 Q 516.439 151.3 515.748 151.094 Q 515.057 150.887 514.306 150.887 Q 513.287 150.887 512.645 151.433 Q 512.003 151.978 512.003 152.924 Q 512.003 153.772 512.463 154.318 Q 512.924 154.863 513.797 155.299 L 515.275 156.002 Q 516.293 156.487 517.105 157.045 Q 517.918 157.602 518.402 158.439 Q 518.887 159.275 518.887 160.657 Q 518.887 163.226 517.081 164.62 Q 515.275 166.014 512.197 166.014 Z" transform="matrix(2.30268, 0, 0, 4.806772, -568.264648, -612.380676)" style="fill: rgb(118, 242, 247); line-height: 37.1289px; white-space: pre;"/>
  <path d="M 131.22 253.556 Q 129.404 253.556 127.747 252.999 Q 126.09 252.443 125.137 251.558 L 125.977 249.787 Q 126.885 250.582 128.292 251.104 Q 129.699 251.626 131.22 251.626 Q 132.605 251.626 133.468 251.308 Q 134.33 250.99 134.739 250.434 Q 135.147 249.878 135.147 249.174 Q 135.147 248.357 134.614 247.858 Q 134.081 247.358 133.229 247.052 Q 132.378 246.746 131.357 246.519 Q 130.335 246.292 129.302 245.985 Q 128.269 245.679 127.418 245.202 Q 126.567 244.725 126.045 243.919 Q 125.523 243.114 125.523 241.842 Q 125.523 240.617 126.17 239.584 Q 126.817 238.551 128.167 237.927 Q 129.518 237.302 131.606 237.302 Q 132.991 237.302 134.353 237.666 Q 135.715 238.029 136.714 238.71 L 135.965 240.526 Q 134.943 239.845 133.808 239.538 Q 132.673 239.232 131.606 239.232 Q 130.267 239.232 129.404 239.572 Q 128.542 239.913 128.144 240.48 Q 127.747 241.048 127.747 241.752 Q 127.747 242.591 128.281 243.091 Q 128.814 243.59 129.665 243.885 Q 130.517 244.18 131.538 244.419 Q 132.56 244.657 133.592 244.952 Q 134.625 245.247 135.477 245.724 Q 136.328 246.201 136.85 246.995 Q 137.372 247.79 137.372 249.038 Q 137.372 250.241 136.714 251.274 Q 136.055 252.307 134.682 252.931 Q 133.309 253.556 131.22 253.556 Z" transform="matrix(1.005108, -0.00807, 0.013023, 1.62203, -43.121422, -125.562775)" style="fill: rgb(71, 223, 236); white-space: pre;"/>
  <path d="M 145.415 253.51 Q 143.871 253.51 142.702 252.943 Q 141.533 252.375 140.886 251.206 Q 140.239 250.037 140.239 248.266 L 140.239 241.343 L 142.419 241.343 L 142.419 248.017 Q 142.419 249.787 143.27 250.673 Q 144.121 251.558 145.665 251.558 Q 146.8 251.558 147.64 251.093 Q 148.48 250.627 148.934 249.731 Q 149.388 248.834 149.388 247.563 L 149.388 241.343 L 151.567 241.343 L 151.567 253.374 L 149.501 253.374 L 149.501 250.128 L 149.842 250.99 Q 149.251 252.194 148.071 252.852 Q 146.891 253.51 145.415 253.51 Z" transform="matrix(1.005108, -0.00807, 0.013023, 1.62203, -43.121422, -125.562775)" style="fill: rgb(71, 223, 236); white-space: pre;"/>
  <path d="M 170.77 241.229 Q 172.222 241.229 173.335 241.797 Q 174.447 242.364 175.071 243.522 Q 175.696 244.68 175.696 246.45 L 175.696 253.374 L 173.516 253.374 L 173.516 246.7 Q 173.516 244.952 172.699 244.067 Q 171.882 243.182 170.406 243.182 Q 169.317 243.182 168.5 243.636 Q 167.682 244.09 167.24 244.975 Q 166.797 245.86 166.797 247.177 L 166.797 253.374 L 164.618 253.374 L 164.618 246.7 Q 164.618 244.952 163.812 244.067 Q 163.006 243.182 161.508 243.182 Q 160.441 243.182 159.624 243.636 Q 158.807 244.09 158.353 244.975 Q 157.899 245.86 157.899 247.177 L 157.899 253.374 L 155.72 253.374 L 155.72 241.343 L 157.808 241.343 L 157.808 244.544 L 157.467 243.726 Q 158.035 242.546 159.215 241.888 Q 160.396 241.229 161.962 241.229 Q 163.687 241.229 164.936 242.081 Q 166.184 242.932 166.57 244.657 L 165.685 244.294 Q 166.23 242.909 167.592 242.069 Q 168.954 241.229 170.77 241.229 Z" transform="matrix(1.005108, -0.00807, 0.013023, 1.62203, -43.121422, -125.562775)" style="fill: rgb(71, 223, 236); white-space: pre;"/>
  <path d="M 185.07 253.51 Q 183.141 253.51 181.677 252.716 Q 180.213 251.921 179.407 250.536 Q 178.601 249.152 178.601 247.358 Q 178.601 245.565 179.384 244.18 Q 180.167 242.796 181.541 242.013 Q 182.914 241.229 184.639 241.229 Q 186.387 241.229 187.726 242.001 Q 189.066 242.773 189.826 244.169 Q 190.587 245.565 190.587 247.427 Q 190.587 247.563 190.575 247.744 Q 190.564 247.926 190.541 248.085 L 180.303 248.085 L 180.303 246.519 L 189.406 246.519 L 188.521 247.063 Q 188.544 245.906 188.044 244.998 Q 187.545 244.09 186.671 243.579 Q 185.797 243.068 184.639 243.068 Q 183.504 243.068 182.619 243.579 Q 181.734 244.09 181.234 245.009 Q 180.735 245.928 180.735 247.109 L 180.735 247.472 Q 180.735 248.675 181.291 249.617 Q 181.847 250.559 182.846 251.081 Q 183.845 251.603 185.139 251.603 Q 186.205 251.603 187.079 251.24 Q 187.953 250.877 188.612 250.151 L 189.815 251.558 Q 188.998 252.511 187.783 253.011 Q 186.569 253.51 185.07 253.51 Z M 182.914 239.595 L 186.001 236.644 L 188.771 236.644 L 184.957 239.595 Z" transform="matrix(1.005108, -0.00807, 0.013023, 1.62203, -43.121422, -125.562775)" style="fill: rgb(71, 223, 236); white-space: pre;"/>
  <path d="M 193.598 253.374 L 193.598 241.343 L 195.686 241.343 L 195.686 244.612 L 195.482 243.795 Q 195.981 242.546 197.162 241.888 Q 198.342 241.229 200.067 241.229 L 200.067 243.341 Q 199.931 243.318 199.806 243.318 Q 199.681 243.318 199.568 243.318 Q 197.82 243.318 196.798 244.362 Q 195.777 245.406 195.777 247.381 L 195.777 253.374 Z" transform="matrix(1.005108, -0.00807, 0.013023, 1.62203, -43.121422, -125.562775)" style="fill: rgb(71, 223, 236); white-space: pre;"/>
  <path d="M 207.896 257.914 Q 206.239 257.914 204.684 257.449 Q 203.129 256.983 202.153 256.121 L 203.198 254.441 Q 204.037 255.167 205.263 255.587 Q 206.489 256.007 207.828 256.007 Q 209.962 256.007 210.961 255.008 Q 211.96 254.01 211.96 251.967 L 211.96 249.424 L 212.187 247.041 L 212.073 244.634 L 212.073 241.343 L 214.139 241.343 L 214.139 251.74 Q 214.139 254.918 212.55 256.416 Q 210.961 257.914 207.896 257.914 Z M 207.624 252.875 Q 205.876 252.875 204.503 252.137 Q 203.129 251.399 202.324 250.082 Q 201.518 248.766 201.518 247.041 Q 201.518 245.293 202.324 243.988 Q 203.129 242.682 204.503 241.956 Q 205.876 241.229 207.624 241.229 Q 209.168 241.229 210.439 241.854 Q 211.71 242.478 212.471 243.772 Q 213.231 245.066 213.231 247.041 Q 213.231 248.993 212.471 250.287 Q 211.71 251.581 210.439 252.228 Q 209.168 252.875 207.624 252.875 Z M 207.874 250.968 Q 209.077 250.968 210.008 250.468 Q 210.938 249.969 211.472 249.084 Q 212.005 248.198 212.005 247.041 Q 212.005 245.883 211.472 244.998 Q 210.938 244.112 210.008 243.624 Q 209.077 243.136 207.874 243.136 Q 206.671 243.136 205.729 243.624 Q 204.787 244.112 204.253 244.998 Q 203.72 245.883 203.72 247.041 Q 203.72 248.198 204.253 249.084 Q 204.787 249.969 205.729 250.468 Q 206.671 250.968 207.874 250.968 Z" transform="matrix(1.005108, -0.00807, 0.013023, 1.62203, -43.121422, -125.562775)" style="fill: rgb(71, 223, 236); white-space: pre;"/>
  <path d="M 223.643 253.51 Q 221.714 253.51 220.25 252.716 Q 218.786 251.921 217.98 250.536 Q 217.174 249.152 217.174 247.358 Q 217.174 245.565 217.957 244.18 Q 218.74 242.796 220.114 242.013 Q 221.487 241.229 223.212 241.229 Q 224.96 241.229 226.299 242.001 Q 227.639 242.773 228.399 244.169 Q 229.159 245.565 229.159 247.427 Q 229.159 247.563 229.148 247.744 Q 229.137 247.926 229.114 248.085 L 218.876 248.085 L 218.876 246.519 L 227.979 246.519 L 227.094 247.063 Q 227.116 245.906 226.617 244.998 Q 226.118 244.09 225.244 243.579 Q 224.37 243.068 223.212 243.068 Q 222.077 243.068 221.192 243.579 Q 220.306 244.09 219.807 245.009 Q 219.308 245.928 219.308 247.109 L 219.308 247.472 Q 219.308 248.675 219.864 249.617 Q 220.42 250.559 221.419 251.081 Q 222.418 251.603 223.711 251.603 Q 224.778 251.603 225.652 251.24 Q 226.526 250.877 227.185 250.151 L 228.388 251.558 Q 227.57 252.511 226.356 253.011 Q 225.142 253.51 223.643 253.51 Z" transform="matrix(1.005108, -0.00807, 0.013023, 1.62203, -43.121422, -125.562775)" style="fill: rgb(71, 223, 236); white-space: pre;"/>
  <path d="M 236.302 253.51 Q 234.486 253.51 233.487 252.534 Q 232.488 251.558 232.488 249.742 L 232.488 238.71 L 234.668 238.71 L 234.668 249.651 Q 234.668 250.627 235.156 251.149 Q 235.644 251.671 236.552 251.671 Q 237.573 251.671 238.254 251.104 L 238.935 252.67 Q 238.436 253.102 237.743 253.306 Q 237.051 253.51 236.302 253.51 Z M 230.445 243.136 L 230.445 241.343 L 238.118 241.343 L 238.118 243.136 Z" transform="matrix(1.005108, -0.00807, 0.013023, 1.62203, -43.121422, -125.562775)" style="fill: rgb(71, 223, 236); white-space: pre;"/>
  <path d="M 246.514 253.51 Q 244.584 253.51 243.12 252.716 Q 241.656 251.921 240.85 250.536 Q 240.044 249.152 240.044 247.358 Q 240.044 245.565 240.828 244.18 Q 241.611 242.796 242.984 242.013 Q 244.357 241.229 246.083 241.229 Q 247.83 241.229 249.17 242.001 Q 250.509 242.773 251.27 244.169 Q 252.03 245.565 252.03 247.427 Q 252.03 247.563 252.019 247.744 Q 252.007 247.926 251.985 248.085 L 241.747 248.085 L 241.747 246.519 L 250.85 246.519 L 249.964 247.063 Q 249.987 245.906 249.488 244.998 Q 248.988 244.09 248.114 243.579 Q 247.24 243.068 246.083 243.068 Q 244.948 243.068 244.062 243.579 Q 243.177 244.09 242.678 245.009 Q 242.178 245.928 242.178 247.109 L 242.178 247.472 Q 242.178 248.675 242.734 249.617 Q 243.29 250.559 244.289 251.081 Q 245.288 251.603 246.582 251.603 Q 247.649 251.603 248.523 251.24 Q 249.397 250.877 250.055 250.151 L 251.258 251.558 Q 250.441 252.511 249.227 253.011 Q 248.012 253.51 246.514 253.51 Z" transform="matrix(1.005108, -0.00807, 0.013023, 1.62203, -43.121422, -125.562775)" style="fill: rgb(71, 223, 236); white-space: pre;"/>
  <path d="M 266.512 253.51 Q 264.583 253.51 263.119 252.716 Q 261.655 251.921 260.849 250.536 Q 260.043 249.152 260.043 247.358 Q 260.043 245.565 260.826 244.18 Q 261.609 242.796 262.983 242.013 Q 264.356 241.229 266.081 241.229 Q 267.829 241.229 269.168 242.001 Q 270.508 242.773 271.268 244.169 Q 272.029 245.565 272.029 247.427 Q 272.029 247.563 272.017 247.744 Q 272.006 247.926 271.983 248.085 L 261.745 248.085 L 261.745 246.519 L 270.848 246.519 L 269.963 247.063 Q 269.986 245.906 269.486 244.998 Q 268.987 244.09 268.113 243.579 Q 267.239 243.068 266.081 243.068 Q 264.946 243.068 264.061 243.579 Q 263.176 244.09 262.676 245.009 Q 262.177 245.928 262.177 247.109 L 262.177 247.472 Q 262.177 248.675 262.733 249.617 Q 263.289 250.559 264.288 251.081 Q 265.287 251.603 266.581 251.603 Q 267.647 251.603 268.521 251.24 Q 269.395 250.877 270.054 250.151 L 271.257 251.558 Q 270.44 252.511 269.225 253.011 Q 268.011 253.51 266.512 253.51 Z" transform="matrix(1.005108, -0.00807, 0.013023, 1.62203, -43.121422, -125.562775)" style="fill: rgb(71, 223, 236); white-space: pre;"/>
  <path d="M 281.464 241.229 Q 282.939 241.229 284.063 241.797 Q 285.187 242.364 285.822 243.522 Q 286.458 244.68 286.458 246.45 L 286.458 253.374 L 284.279 253.374 L 284.279 246.7 Q 284.279 244.952 283.427 244.067 Q 282.576 243.182 281.032 243.182 Q 279.875 243.182 279.012 243.636 Q 278.15 244.09 277.684 244.975 Q 277.219 245.86 277.219 247.177 L 277.219 253.374 L 275.04 253.374 L 275.04 241.343 L 277.128 241.343 L 277.128 244.589 L 276.788 243.726 Q 277.378 242.546 278.604 241.888 Q 279.829 241.229 281.464 241.229 Z" transform="matrix(1.005108, -0.00807, 0.013023, 1.62203, -43.121422, -125.562775)" style="fill: rgb(71, 223, 236); white-space: pre;"/>
  <path d="M 296.602 253.374 L 296.602 236.531 L 298.781 236.531 L 298.781 253.374 Z" transform="matrix(1.005108, -0.00807, 0.013023, 1.62203, -43.121422, -125.562775)" style="fill: rgb(71, 223, 236); white-space: pre;"/>
  <path d="M 310.404 253.374 L 310.404 250.832 L 310.291 250.355 L 310.291 246.019 Q 310.291 244.634 309.485 243.874 Q 308.679 243.114 307.067 243.114 Q 306 243.114 304.979 243.465 Q 303.957 243.817 303.254 244.407 L 302.346 242.773 Q 303.276 242.024 304.582 241.627 Q 305.887 241.229 307.317 241.229 Q 309.791 241.229 311.131 242.433 Q 312.47 243.636 312.47 246.11 L 312.47 253.374 Z M 306.454 253.51 Q 305.115 253.51 304.105 253.056 Q 303.095 252.602 302.55 251.796 Q 302.005 250.99 302.005 249.969 Q 302.005 248.993 302.47 248.198 Q 302.936 247.404 303.991 246.927 Q 305.047 246.45 306.84 246.45 L 310.654 246.45 L 310.654 248.017 L 306.931 248.017 Q 305.297 248.017 304.729 248.562 Q 304.162 249.106 304.162 249.878 Q 304.162 250.763 304.865 251.297 Q 305.569 251.83 306.818 251.83 Q 308.043 251.83 308.963 251.286 Q 309.882 250.741 310.291 249.697 L 310.722 251.195 Q 310.291 252.262 309.201 252.886 Q 308.111 253.51 306.454 253.51 Z" transform="matrix(1.005108, -0.00807, 0.013023, 1.62203, -43.121422, -125.562775)" style="fill: rgb(71, 223, 236); white-space: pre;"/>
  <path d="M 328.989 253.51 Q 327.445 253.51 326.208 252.818 Q 324.971 252.125 324.256 250.763 Q 323.541 249.401 323.541 247.358 Q 323.541 245.315 324.279 243.953 Q 325.016 242.591 326.254 241.91 Q 327.491 241.229 328.989 241.229 Q 330.76 241.229 332.122 242.001 Q 333.484 242.773 334.278 244.146 Q 335.073 245.52 335.073 247.358 Q 335.073 249.197 334.278 250.582 Q 333.484 251.967 332.122 252.738 Q 330.76 253.51 328.989 253.51 Z M 322.61 253.374 L 322.61 236.531 L 324.789 236.531 L 324.789 244.544 L 324.562 247.336 L 324.699 250.128 L 324.699 253.374 Z M 328.807 251.603 Q 329.965 251.603 330.884 251.081 Q 331.804 250.559 332.337 249.594 Q 332.871 248.63 332.871 247.358 Q 332.871 246.065 332.337 245.123 Q 331.804 244.18 330.884 243.658 Q 329.965 243.136 328.807 243.136 Q 327.672 243.136 326.753 243.658 Q 325.834 244.18 325.3 245.123 Q 324.767 246.065 324.767 247.358 Q 324.767 248.63 325.3 249.594 Q 325.834 250.559 326.753 251.081 Q 327.672 251.603 328.807 251.603 Z" transform="matrix(1.005108, -0.00807, 0.013023, 1.62203, -43.121422, -125.562775)" style="fill: rgb(71, 223, 236); white-space: pre;"/>
  <path d="M 343.438 253.51 Q 341.509 253.51 340.045 252.716 Q 338.58 251.921 337.775 250.536 Q 336.969 249.152 336.969 247.358 Q 336.969 245.565 337.752 244.18 Q 338.535 242.796 339.908 242.013 Q 341.282 241.229 343.007 241.229 Q 344.755 241.229 346.094 242.001 Q 347.433 242.773 348.194 244.169 Q 348.954 245.565 348.954 247.427 Q 348.954 247.563 348.943 247.744 Q 348.932 247.926 348.909 248.085 L 338.671 248.085 L 338.671 246.519 L 347.774 246.519 L 346.889 247.063 Q 346.911 245.906 346.412 244.998 Q 345.913 244.09 345.039 243.579 Q 344.165 243.068 343.007 243.068 Q 341.872 243.068 340.987 243.579 Q 340.101 244.09 339.602 245.009 Q 339.103 245.928 339.103 247.109 L 339.103 247.472 Q 339.103 248.675 339.659 249.617 Q 340.215 250.559 341.214 251.081 Q 342.212 251.603 343.506 251.603 Q 344.573 251.603 345.447 251.24 Q 346.321 250.877 346.979 250.151 L 348.183 251.558 Q 347.365 252.511 346.151 253.011 Q 344.936 253.51 343.438 253.51 Z" transform="matrix(1.005108, -0.00807, 0.013023, 1.62203, -43.121422, -125.562775)" style="fill: rgb(71, 223, 236); white-space: pre;"/>
  <path d="M 351.965 253.374 L 351.965 236.531 L 354.145 236.531 L 354.145 253.374 Z" transform="matrix(1.005108, -0.00807, 0.013023, 1.62203, -43.121422, -125.562775)" style="fill: rgb(71, 223, 236); white-space: pre;"/>
  <path d="M 358.3 253.374 L 358.3 236.531 L 360.479 236.531 L 360.479 253.374 Z" transform="matrix(1.005108, -0.00807, 0.013023, 1.62203, -43.121422, -125.562775)" style="fill: rgb(71, 223, 236); white-space: pre;"/>
  <path d="M 369.991 253.51 Q 368.062 253.51 366.598 252.716 Q 365.133 251.921 364.328 250.536 Q 363.522 249.152 363.522 247.358 Q 363.522 245.565 364.305 244.18 Q 365.088 242.796 366.461 242.013 Q 367.835 241.229 369.56 241.229 Q 371.308 241.229 372.647 242.001 Q 373.986 242.773 374.747 244.169 Q 375.507 245.565 375.507 247.427 Q 375.507 247.563 375.496 247.744 Q 375.485 247.926 375.462 248.085 L 365.224 248.085 L 365.224 246.519 L 374.327 246.519 L 373.442 247.063 Q 373.464 245.906 372.965 244.998 Q 372.465 244.09 371.592 243.579 Q 370.718 243.068 369.56 243.068 Q 368.425 243.068 367.54 243.579 Q 366.654 244.09 366.155 245.009 Q 365.655 245.928 365.655 247.109 L 365.655 247.472 Q 365.655 248.675 366.212 249.617 Q 366.768 250.559 367.767 251.081 Q 368.765 251.603 370.059 251.603 Q 371.126 251.603 372 251.24 Q 372.874 250.877 373.532 250.151 L 374.735 251.558 Q 373.918 252.511 372.704 253.011 Q 371.489 253.51 369.991 253.51 Z" transform="matrix(1.005108, -0.00807, 0.013023, 1.62203, -43.121422, -125.562775)" style="fill: rgb(71, 223, 236); white-space: pre;"/>
  <path d="M 377.245 253.374 L 377.245 251.967 L 384.963 242.387 L 385.394 243.136 L 377.381 243.136 L 377.381 241.343 L 387.142 241.343 L 387.142 242.773 L 379.424 252.33 L 378.925 251.581 L 387.324 251.581 L 387.324 253.374 Z" transform="matrix(1.005108, -0.00807, 0.013023, 1.62203, -43.121422, -125.562775)" style="fill: rgb(71, 223, 236); white-space: pre;"/>
  <path d="M 397.694 253.374 L 397.694 250.832 L 397.581 250.355 L 397.581 246.019 Q 397.581 244.634 396.775 243.874 Q 395.969 243.114 394.357 243.114 Q 393.29 243.114 392.269 243.465 Q 391.247 243.817 390.544 244.407 L 389.636 242.773 Q 390.566 242.024 391.871 241.627 Q 393.177 241.229 394.607 241.229 Q 397.081 241.229 398.42 242.433 Q 399.76 243.636 399.76 246.11 L 399.76 253.374 Z M 393.744 253.51 Q 392.405 253.51 391.395 253.056 Q 390.385 252.602 389.84 251.796 Q 389.295 250.99 389.295 249.969 Q 389.295 248.993 389.76 248.198 Q 390.226 247.404 391.281 246.927 Q 392.337 246.45 394.13 246.45 L 397.944 246.45 L 397.944 248.017 L 394.221 248.017 Q 392.587 248.017 392.019 248.562 Q 391.452 249.106 391.452 249.878 Q 391.452 250.763 392.155 251.297 Q 392.859 251.83 394.107 251.83 Q 395.333 251.83 396.253 251.286 Q 397.172 250.741 397.581 249.697 L 398.012 251.195 Q 397.581 252.262 396.491 252.886 Q 395.401 253.51 393.744 253.51 Z" transform="matrix(1.005108, -0.00807, 0.013023, 1.62203, -43.121422, -125.562775)" style="fill: rgb(71, 223, 236); white-space: pre;"/>
  <path d="M 415.155 253.51 Q 413.317 253.51 411.875 252.716 Q 410.434 251.921 409.617 250.536 Q 408.799 249.152 408.799 247.358 Q 408.799 245.565 409.617 244.18 Q 410.434 242.796 411.875 242.013 Q 413.317 241.229 415.155 241.229 Q 416.79 241.229 418.072 241.876 Q 419.355 242.523 420.059 243.795 L 418.401 244.861 Q 417.811 243.976 416.96 243.556 Q 416.109 243.136 415.133 243.136 Q 413.952 243.136 413.022 243.658 Q 412.091 244.18 411.546 245.123 Q 411.001 246.065 411.001 247.358 Q 411.001 248.652 411.546 249.606 Q 412.091 250.559 413.022 251.081 Q 413.952 251.603 415.133 251.603 Q 416.109 251.603 416.96 251.183 Q 417.811 250.763 418.401 249.878 L 420.059 250.922 Q 419.355 252.171 418.072 252.841 Q 416.79 253.51 415.155 253.51 Z" transform="matrix(1.005108, -0.00807, 0.013023, 1.62203, -43.121422, -125.562775)" style="fill: rgb(71, 223, 236); white-space: pre;"/>
  <path d="M 427.837 253.51 Q 426.021 253.51 424.614 252.716 Q 423.206 251.921 422.389 250.525 Q 421.572 249.129 421.572 247.358 Q 421.572 245.565 422.389 244.18 Q 423.206 242.796 424.614 242.013 Q 426.021 241.229 427.837 241.229 Q 429.631 241.229 431.049 242.013 Q 432.468 242.796 433.274 244.169 Q 434.08 245.542 434.08 247.358 Q 434.08 249.152 433.274 250.536 Q 432.468 251.921 431.049 252.716 Q 429.631 253.51 427.837 253.51 Z M 427.837 251.603 Q 428.995 251.603 429.914 251.081 Q 430.834 250.559 431.356 249.594 Q 431.878 248.63 431.878 247.358 Q 431.878 246.065 431.356 245.123 Q 430.834 244.18 429.914 243.658 Q 428.995 243.136 427.837 243.136 Q 426.68 243.136 425.772 243.658 Q 424.864 244.18 424.319 245.123 Q 423.774 246.065 423.774 247.358 Q 423.774 248.63 424.319 249.594 Q 424.864 250.559 425.772 251.081 Q 426.68 251.603 427.837 251.603 Z" transform="matrix(1.005108, -0.00807, 0.013023, 1.62203, -43.121422, -125.562775)" style="fill: rgb(71, 223, 236); white-space: pre;"/>
  <path d="M 440.54 253.51 Q 439.042 253.51 437.691 253.102 Q 436.341 252.693 435.569 252.103 L 436.477 250.378 Q 437.249 250.9 438.384 251.263 Q 439.519 251.626 440.699 251.626 Q 442.22 251.626 442.89 251.195 Q 443.559 250.763 443.559 249.992 Q 443.559 249.424 443.151 249.106 Q 442.742 248.789 442.073 248.63 Q 441.403 248.471 440.586 248.346 Q 439.768 248.221 438.951 248.028 Q 438.134 247.835 437.453 247.483 Q 436.772 247.131 436.363 246.507 Q 435.955 245.883 435.955 244.839 Q 435.955 243.749 436.568 242.932 Q 437.181 242.115 438.304 241.672 Q 439.428 241.229 440.972 241.229 Q 442.152 241.229 443.366 241.513 Q 444.581 241.797 445.353 242.319 L 444.422 244.044 Q 443.605 243.499 442.719 243.295 Q 441.834 243.091 440.949 243.091 Q 439.519 243.091 438.815 243.556 Q 438.111 244.022 438.111 244.748 Q 438.111 245.361 438.531 245.69 Q 438.951 246.019 439.621 246.201 Q 440.291 246.382 441.108 246.507 Q 441.925 246.632 442.742 246.825 Q 443.559 247.018 444.229 247.358 Q 444.899 247.699 445.319 248.312 Q 445.739 248.925 445.739 249.946 Q 445.739 251.036 445.103 251.83 Q 444.467 252.625 443.31 253.068 Q 442.152 253.51 440.54 253.51 Z" transform="matrix(1.005108, -0.00807, 0.013023, 1.62203, -43.121422, -125.562775)" style="fill: rgb(71, 223, 236); white-space: pre;"/>
  <path d="M 452.593 253.51 Q 450.777 253.51 449.778 252.534 Q 448.779 251.558 448.779 249.742 L 448.779 238.71 L 450.958 238.71 L 450.958 249.651 Q 450.958 250.627 451.446 251.149 Q 451.935 251.671 452.843 251.671 Q 453.864 251.671 454.545 251.104 L 455.226 252.67 Q 454.727 253.102 454.034 253.306 Q 453.342 253.51 452.593 253.51 Z M 446.736 243.136 L 446.736 241.343 L 454.409 241.343 L 454.409 243.136 Z" transform="matrix(1.005108, -0.00807, 0.013023, 1.62203, -43.121422, -125.562775)" style="fill: rgb(71, 223, 236); white-space: pre;"/>
  <path d="M 462.805 253.51 Q 460.875 253.51 459.411 252.716 Q 457.947 251.921 457.141 250.536 Q 456.335 249.152 456.335 247.358 Q 456.335 245.565 457.118 244.18 Q 457.901 242.796 459.275 242.013 Q 460.648 241.229 462.373 241.229 Q 464.121 241.229 465.461 242.001 Q 466.8 242.773 467.56 244.169 Q 468.321 245.565 468.321 247.427 Q 468.321 247.563 468.309 247.744 Q 468.298 247.926 468.275 248.085 L 458.038 248.085 L 458.038 246.519 L 467.14 246.519 L 466.255 247.063 Q 466.278 245.906 465.778 244.998 Q 465.279 244.09 464.405 243.579 Q 463.531 243.068 462.373 243.068 Q 461.238 243.068 460.353 243.579 Q 459.468 244.09 458.968 245.009 Q 458.469 245.928 458.469 247.109 L 458.469 247.472 Q 458.469 248.675 459.025 249.617 Q 459.581 250.559 460.58 251.081 Q 461.579 251.603 462.873 251.603 Q 463.94 251.603 464.814 251.24 Q 465.688 250.877 466.346 250.151 L 467.549 251.558 Q 466.732 252.511 465.517 253.011 Q 464.303 253.51 462.805 253.51 Z" transform="matrix(1.005108, -0.00807, 0.013023, 1.62203, -43.121422, -125.562775)" style="fill: rgb(71, 223, 236); white-space: pre;"/>
  <path d="M 471.332 253.374 L 471.332 241.343 L 473.42 241.343 L 473.42 244.612 L 473.216 243.795 Q 473.715 242.546 474.896 241.888 Q 476.076 241.229 477.801 241.229 L 477.801 243.341 Q 477.665 243.318 477.54 243.318 Q 477.415 243.318 477.302 243.318 Q 475.554 243.318 474.533 244.362 Q 473.511 245.406 473.511 247.381 L 473.511 253.374 Z" transform="matrix(1.005108, -0.00807, 0.013023, 1.62203, -43.121422, -125.562775)" style="fill: rgb(71, 223, 236); white-space: pre;"/>
  <path d="M 487.068 253.374 L 487.068 250.832 L 486.955 250.355 L 486.955 246.019 Q 486.955 244.634 486.149 243.874 Q 485.343 243.114 483.731 243.114 Q 482.664 243.114 481.643 243.465 Q 480.621 243.817 479.918 244.407 L 479.01 242.773 Q 479.94 242.024 481.246 241.627 Q 482.551 241.229 483.981 241.229 Q 486.455 241.229 487.795 242.433 Q 489.134 243.636 489.134 246.11 L 489.134 253.374 Z M 483.118 253.51 Q 481.779 253.51 480.769 253.056 Q 479.759 252.602 479.214 251.796 Q 478.669 250.99 478.669 249.969 Q 478.669 248.993 479.135 248.198 Q 479.6 247.404 480.656 246.927 Q 481.711 246.45 483.504 246.45 L 487.318 246.45 L 487.318 248.017 L 483.595 248.017 Q 481.961 248.017 481.393 248.562 Q 480.826 249.106 480.826 249.878 Q 480.826 250.763 481.529 251.297 Q 482.233 251.83 483.482 251.83 Q 484.707 251.83 485.627 251.286 Q 486.546 250.741 486.955 249.697 L 487.386 251.195 Q 486.955 252.262 485.865 252.886 Q 484.776 253.51 483.118 253.51 Z" transform="matrix(1.005108, -0.00807, 0.013023, 1.62203, -43.121422, -125.562775)" style="fill: rgb(71, 223, 236); white-space: pre;"/>
  <path d="M 493.694 244.339 Q 493.058 244.339 492.604 243.897 Q 492.15 243.454 492.15 242.773 Q 492.15 242.092 492.604 241.661 Q 493.058 241.229 493.694 241.229 Q 494.307 241.229 494.749 241.661 Q 495.192 242.092 495.192 242.773 Q 495.192 243.454 494.749 243.897 Q 494.307 244.339 493.694 244.339 Z M 493.694 253.51 Q 493.058 253.51 492.604 253.068 Q 492.15 252.625 492.15 251.944 Q 492.15 251.263 492.604 250.832 Q 493.058 250.4 493.694 250.4 Q 494.307 250.4 494.749 250.832 Q 495.192 251.263 495.192 251.944 Q 495.192 252.625 494.749 253.068 Q 494.307 253.51 493.694 253.51 Z" transform="matrix(1.005108, -0.00807, 0.013023, 1.62203, -43.121422, -125.562775)" style="fill: rgb(71, 223, 236); white-space: pre;"/>
  <path d="M 506.811 244.339 L 514.983 244.339 L 514.983 246.269 L 506.811 246.269 Z M 507.015 251.399 L 516.277 251.399 L 516.277 253.374 L 504.745 253.374 L 504.745 237.484 L 515.959 237.484 L 515.959 239.459 L 507.015 239.459 Z" transform="matrix(1.005108, -0.00807, 0.013023, 1.62203, -43.121422, -125.562775)" style="fill: rgb(71, 223, 236); white-space: pre;"/>
  <path d="M 517.606 253.374 L 522.782 246.655 L 522.759 247.767 L 517.833 241.343 L 520.262 241.343 L 524.03 246.292 L 523.1 246.292 L 526.868 241.343 L 529.251 241.343 L 524.257 247.812 L 524.28 246.655 L 529.501 253.374 L 527.027 253.374 L 523.054 248.108 L 523.939 248.244 L 520.035 253.374 Z" transform="matrix(1.005108, -0.00807, 0.013023, 1.62203, -43.121422, -125.562775)" style="fill: rgb(71, 223, 236); white-space: pre;"/>
  <path d="M 538.262 253.51 Q 536.764 253.51 535.527 252.818 Q 534.29 252.125 533.552 250.763 Q 532.814 249.401 532.814 247.358 Q 532.814 245.315 533.529 243.953 Q 534.244 242.591 535.482 241.91 Q 536.719 241.229 538.262 241.229 Q 540.033 241.229 541.395 242.001 Q 542.757 242.773 543.551 244.146 Q 544.346 245.52 544.346 247.358 Q 544.346 249.197 543.551 250.582 Q 542.757 251.967 541.395 252.738 Q 540.033 253.51 538.262 253.51 Z M 531.884 257.778 L 531.884 241.343 L 533.972 241.343 L 533.972 244.589 L 533.836 247.381 L 534.063 250.173 L 534.063 257.778 Z M 538.081 251.603 Q 539.238 251.603 540.158 251.081 Q 541.077 250.559 541.611 249.594 Q 542.144 248.63 542.144 247.358 Q 542.144 246.065 541.611 245.123 Q 541.077 244.18 540.158 243.658 Q 539.238 243.136 538.081 243.136 Q 536.946 243.136 536.026 243.658 Q 535.107 244.18 534.574 245.123 Q 534.04 246.065 534.04 247.358 Q 534.04 248.63 534.574 249.594 Q 535.107 250.559 536.026 251.081 Q 536.946 251.603 538.081 251.603 Z" transform="matrix(1.005108, -0.00807, 0.013023, 1.62203, -43.121422, -125.562775)" style="fill: rgb(71, 223, 236); white-space: pre;"/>
  <path d="M 547.354 253.374 L 547.354 236.531 L 549.534 236.531 L 549.534 253.374 Z" transform="matrix(1.005108, -0.00807, 0.013023, 1.62203, -43.121422, -125.562775)" style="fill: rgb(71, 223, 236); white-space: pre;"/>
  <path d="M 558.842 253.51 Q 557.026 253.51 555.618 252.716 Q 554.211 251.921 553.394 250.525 Q 552.576 249.129 552.576 247.358 Q 552.576 245.565 553.394 244.18 Q 554.211 242.796 555.618 242.013 Q 557.026 241.229 558.842 241.229 Q 560.635 241.229 562.054 242.013 Q 563.472 242.796 564.278 244.169 Q 565.084 245.542 565.084 247.358 Q 565.084 249.152 564.278 250.536 Q 563.472 251.921 562.054 252.716 Q 560.635 253.51 558.842 253.51 Z M 558.842 251.603 Q 559.999 251.603 560.919 251.081 Q 561.838 250.559 562.36 249.594 Q 562.882 248.63 562.882 247.358 Q 562.882 246.065 562.36 245.123 Q 561.838 244.18 560.919 243.658 Q 559.999 243.136 558.842 243.136 Q 557.684 243.136 556.776 243.658 Q 555.868 244.18 555.323 245.123 Q 554.778 246.065 554.778 247.358 Q 554.778 248.63 555.323 249.594 Q 555.868 250.559 556.776 251.081 Q 557.684 251.603 558.842 251.603 Z" transform="matrix(1.005108, -0.00807, 0.013023, 1.62203, -43.121422, -125.562775)" style="fill: rgb(71, 223, 236); white-space: pre;"/>
  <path d="M 568.094 253.374 L 568.094 241.343 L 570.183 241.343 L 570.183 244.612 L 569.978 243.795 Q 570.478 242.546 571.658 241.888 Q 572.839 241.229 574.564 241.229 L 574.564 243.341 Q 574.428 243.318 574.303 243.318 Q 574.178 243.318 574.064 243.318 Q 572.316 243.318 571.295 244.362 Q 570.273 245.406 570.273 247.381 L 570.273 253.374 Z" transform="matrix(1.005108, -0.00807, 0.013023, 1.62203, -43.121422, -125.562775)" style="fill: rgb(71, 223, 236); white-space: pre;"/>
  <path d="M 583.831 253.374 L 583.831 250.832 L 583.717 250.355 L 583.717 246.019 Q 583.717 244.634 582.911 243.874 Q 582.105 243.114 580.494 243.114 Q 579.427 243.114 578.405 243.465 Q 577.384 243.817 576.68 244.407 L 575.772 242.773 Q 576.703 242.024 578.008 241.627 Q 579.313 241.229 580.743 241.229 Q 583.218 241.229 584.557 242.433 Q 585.896 243.636 585.896 246.11 L 585.896 253.374 Z M 579.881 253.51 Q 578.541 253.51 577.531 253.056 Q 576.521 252.602 575.976 251.796 Q 575.432 250.99 575.432 249.969 Q 575.432 248.993 575.897 248.198 Q 576.362 247.404 577.418 246.927 Q 578.473 246.45 580.267 246.45 L 584.08 246.45 L 584.08 248.017 L 580.357 248.017 Q 578.723 248.017 578.156 248.562 Q 577.588 249.106 577.588 249.878 Q 577.588 250.763 578.292 251.297 Q 578.995 251.83 580.244 251.83 Q 581.47 251.83 582.389 251.286 Q 583.308 250.741 583.717 249.697 L 584.148 251.195 Q 583.717 252.262 582.627 252.886 Q 581.538 253.51 579.881 253.51 Z" transform="matrix(1.005108, -0.00807, 0.013023, 1.62203, -43.121422, -125.562775)" style="fill: rgb(71, 223, 236); white-space: pre;"/>
  <path d="M 589.071 256.734 L 590.206 252.148 L 590.502 253.465 Q 589.843 253.465 589.401 253.056 Q 588.958 252.648 588.958 251.944 Q 588.958 251.263 589.401 250.832 Q 589.843 250.4 590.479 250.4 Q 591.137 250.4 591.546 250.843 Q 591.954 251.286 591.954 251.944 Q 591.954 252.171 591.92 252.387 Q 591.886 252.602 591.807 252.886 Q 591.727 253.17 591.568 253.578 L 590.502 256.734 Z" transform="matrix(1.005108, -0.00807, 0.013023, 1.62203, -43.121422, -125.562775)" style="fill: rgb(71, 223, 236); white-space: pre;"/>
  <path d="M 601.19 253.374 L 601.19 241.343 L 603.278 241.343 L 603.278 244.612 L 603.074 243.795 Q 603.573 242.546 604.754 241.888 Q 605.934 241.229 607.659 241.229 L 607.659 243.341 Q 607.523 243.318 607.398 243.318 Q 607.273 243.318 607.16 243.318 Q 605.412 243.318 604.39 244.362 Q 603.369 245.406 603.369 247.381 L 603.369 253.374 Z" transform="matrix(1.005108, -0.00807, 0.013023, 1.62203, -43.121422, -125.562775)" style="fill: rgb(71, 223, 236); white-space: pre;"/>
  <path d="M 615.579 253.51 Q 613.65 253.51 612.186 252.716 Q 610.722 251.921 609.916 250.536 Q 609.11 249.152 609.11 247.358 Q 609.11 245.565 609.893 244.18 Q 610.676 242.796 612.049 242.013 Q 613.423 241.229 615.148 241.229 Q 616.896 241.229 618.235 242.001 Q 619.575 242.773 620.335 244.169 Q 621.095 245.565 621.095 247.427 Q 621.095 247.563 621.084 247.744 Q 621.073 247.926 621.05 248.085 L 610.812 248.085 L 610.812 246.519 L 619.915 246.519 L 619.03 247.063 Q 619.052 245.906 618.553 244.998 Q 618.054 244.09 617.18 243.579 Q 616.306 243.068 615.148 243.068 Q 614.013 243.068 613.128 243.579 Q 612.242 244.09 611.743 245.009 Q 611.244 245.928 611.244 247.109 L 611.244 247.472 Q 611.244 248.675 611.8 249.617 Q 612.356 250.559 613.355 251.081 Q 614.354 251.603 615.647 251.603 Q 616.714 251.603 617.588 251.24 Q 618.462 250.877 619.121 250.151 L 620.324 251.558 Q 619.506 252.511 618.292 253.011 Q 617.078 253.51 615.579 253.51 Z" transform="matrix(1.005108, -0.00807, 0.013023, 1.62203, -43.121422, -125.562775)" style="fill: rgb(71, 223, 236); white-space: pre;"/>
  <path d="M 624.107 253.374 L 624.107 236.531 L 626.286 236.531 L 626.286 253.374 Z" transform="matrix(1.005108, -0.00807, 0.013023, 1.62203, -43.121422, -125.562775)" style="fill: rgb(71, 223, 236); white-space: pre;"/>
  <path d="M 637.909 253.374 L 637.909 250.832 L 637.796 250.355 L 637.796 246.019 Q 637.796 244.634 636.99 243.874 Q 636.184 243.114 634.572 243.114 Q 633.505 243.114 632.484 243.465 Q 631.462 243.817 630.759 244.407 L 629.851 242.773 Q 630.781 242.024 632.087 241.627 Q 633.392 241.229 634.822 241.229 Q 637.296 241.229 638.635 242.433 Q 639.975 243.636 639.975 246.11 L 639.975 253.374 Z M 633.959 253.51 Q 632.62 253.51 631.61 253.056 Q 630.6 252.602 630.055 251.796 Q 629.51 250.99 629.51 249.969 Q 629.51 248.993 629.975 248.198 Q 630.441 247.404 631.496 246.927 Q 632.552 246.45 634.345 246.45 L 638.159 246.45 L 638.159 248.017 L 634.436 248.017 Q 632.802 248.017 632.234 248.562 Q 631.667 249.106 631.667 249.878 Q 631.667 250.763 632.37 251.297 Q 633.074 251.83 634.322 251.83 Q 635.548 251.83 636.468 251.286 Q 637.387 250.741 637.796 249.697 L 638.227 251.195 Q 637.796 252.262 636.706 252.886 Q 635.616 253.51 633.959 253.51 Z M 633.278 239.595 L 636.365 236.644 L 639.135 236.644 L 635.321 239.595 Z" transform="matrix(1.005108, -0.00807, 0.013023, 1.62203, -43.121422, -125.562775)" style="fill: rgb(71, 223, 236); white-space: pre;"/>
  <path d="M 642.469 257.914 Q 641.72 257.914 641.027 257.732 Q 640.335 257.551 639.858 257.188 L 640.562 255.508 Q 641.243 256.075 642.333 256.075 Q 643.195 256.075 643.661 255.542 Q 644.126 255.008 644.126 253.964 L 644.126 241.343 L 646.305 241.343 L 646.305 253.919 Q 646.305 255.757 645.318 256.836 Q 644.33 257.914 642.469 257.914 Z M 645.216 239.028 Q 644.58 239.028 644.16 238.619 Q 643.74 238.21 643.74 237.62 Q 643.74 237.007 644.16 236.599 Q 644.58 236.19 645.216 236.19 Q 645.851 236.19 646.271 236.587 Q 646.691 236.985 646.691 237.575 Q 646.691 238.188 646.283 238.608 Q 645.874 239.028 645.216 239.028 Z" transform="matrix(1.005108, -0.00807, 0.013023, 1.62203, -43.121422, -125.562775)" style="fill: rgb(71, 223, 236); white-space: pre;"/>
  <path d="M 657.919 253.374 L 657.919 250.832 L 657.806 250.355 L 657.806 246.019 Q 657.806 244.634 657 243.874 Q 656.194 243.114 654.582 243.114 Q 653.515 243.114 652.494 243.465 Q 651.472 243.817 650.769 244.407 L 649.861 242.773 Q 650.791 242.024 652.097 241.627 Q 653.402 241.229 654.832 241.229 Q 657.306 241.229 658.646 242.433 Q 659.985 243.636 659.985 246.11 L 659.985 253.374 Z M 653.969 253.51 Q 652.63 253.51 651.62 253.056 Q 650.61 252.602 650.065 251.796 Q 649.52 250.99 649.52 249.969 Q 649.52 248.993 649.986 248.198 Q 650.451 247.404 651.507 246.927 Q 652.562 246.45 654.355 246.45 L 658.169 246.45 L 658.169 248.017 L 654.446 248.017 Q 652.812 248.017 652.244 248.562 Q 651.677 249.106 651.677 249.878 Q 651.677 250.763 652.38 251.297 Q 653.084 251.83 654.333 251.83 Q 655.558 251.83 656.478 251.286 Q 657.397 250.741 657.806 249.697 L 658.237 251.195 Q 657.806 252.262 656.716 252.886 Q 655.627 253.51 653.969 253.51 Z" transform="matrix(1.005108, -0.00807, 0.013023, 1.62203, -43.121422, -125.562775)" style="fill: rgb(71, 223, 236); white-space: pre;"/>
  <path d="M 668.154 253.51 Q 666.338 253.51 665.339 252.534 Q 664.341 251.558 664.341 249.742 L 664.341 238.71 L 666.52 238.71 L 666.52 249.651 Q 666.52 250.627 667.008 251.149 Q 667.496 251.671 668.404 251.671 Q 669.425 251.671 670.106 251.104 L 670.787 252.67 Q 670.288 253.102 669.596 253.306 Q 668.903 253.51 668.154 253.51 Z M 662.298 243.136 L 662.298 241.343 L 669.97 241.343 L 669.97 243.136 Z" transform="matrix(1.005108, -0.00807, 0.013023, 1.62203, -43.121422, -125.562775)" style="fill: rgb(71, 223, 236); white-space: pre;"/>
  <path d="M 678.366 253.51 Q 676.436 253.51 674.972 252.716 Q 673.508 251.921 672.702 250.536 Q 671.896 249.152 671.896 247.358 Q 671.896 245.565 672.68 244.18 Q 673.463 242.796 674.836 242.013 Q 676.209 241.229 677.935 241.229 Q 679.683 241.229 681.022 242.001 Q 682.361 242.773 683.122 244.169 Q 683.882 245.565 683.882 247.427 Q 683.882 247.563 683.871 247.744 Q 683.859 247.926 683.837 248.085 L 673.599 248.085 L 673.599 246.519 L 682.702 246.519 L 681.816 247.063 Q 681.839 245.906 681.34 244.998 Q 680.84 244.09 679.966 243.579 Q 679.092 243.068 677.935 243.068 Q 676.8 243.068 675.914 243.579 Q 675.029 244.09 674.53 245.009 Q 674.03 245.928 674.03 247.109 L 674.03 247.472 Q 674.03 248.675 674.586 249.617 Q 675.143 250.559 676.141 251.081 Q 677.14 251.603 678.434 251.603 Q 679.501 251.603 680.375 251.24 Q 681.249 250.877 681.907 250.151 L 683.11 251.558 Q 682.293 252.511 681.079 253.011 Q 679.864 253.51 678.366 253.51 Z" transform="matrix(1.005108, -0.00807, 0.013023, 1.62203, -43.121422, -125.562775)" style="fill: rgb(71, 223, 236); white-space: pre;"/>
  <path d="M 693.53 257.914 Q 692.667 257.914 691.85 257.63 Q 691.033 257.346 690.442 256.802 L 691.373 255.167 Q 691.827 255.599 692.372 255.826 Q 692.917 256.053 693.53 256.053 Q 694.324 256.053 694.846 255.644 Q 695.368 255.235 695.822 254.191 L 696.571 252.534 L 696.798 252.262 L 701.52 241.343 L 703.654 241.343 L 697.82 254.577 Q 697.298 255.848 696.651 256.575 Q 696.004 257.301 695.232 257.608 Q 694.46 257.914 693.53 257.914 Z M 696.39 253.76 L 690.896 241.343 L 693.166 241.343 L 697.843 252.057 Z" transform="matrix(1.005108, -0.00807, 0.013023, 1.62203, -43.121422, -125.562775)" style="fill: rgb(71, 223, 236); white-space: pre;"/>
  <path d="M 716.761 253.51 Q 715.014 253.51 713.64 252.738 Q 712.267 251.967 711.472 250.582 Q 710.678 249.197 710.678 247.358 Q 710.678 245.52 711.472 244.146 Q 712.267 242.773 713.64 242.001 Q 715.014 241.229 716.761 241.229 Q 718.282 241.229 719.508 241.91 Q 720.734 242.591 721.472 243.953 Q 722.209 245.315 722.209 247.358 Q 722.209 249.401 721.494 250.763 Q 720.779 252.125 719.554 252.818 Q 718.328 253.51 716.761 253.51 Z M 716.943 251.603 Q 718.078 251.603 718.997 251.081 Q 719.917 250.559 720.45 249.594 Q 720.984 248.63 720.984 247.358 Q 720.984 246.065 720.45 245.123 Q 719.917 244.18 718.997 243.658 Q 718.078 243.136 716.943 243.136 Q 715.785 243.136 714.877 243.658 Q 713.969 244.18 713.425 245.123 Q 712.88 246.065 712.88 247.358 Q 712.88 248.63 713.425 249.594 Q 713.969 250.559 714.877 251.081 Q 715.785 251.603 716.943 251.603 Z M 721.052 253.374 L 721.052 250.128 L 721.188 247.336 L 720.961 244.544 L 720.961 236.531 L 723.14 236.531 L 723.14 253.374 Z" transform="matrix(1.005108, -0.00807, 0.013023, 1.62203, -43.121422, -125.562775)" style="fill: rgb(71, 223, 236); white-space: pre;"/>
  <path d="M 727.273 253.374 L 727.273 241.343 L 729.452 241.343 L 729.452 253.374 Z M 728.362 239.028 Q 727.727 239.028 727.307 238.619 Q 726.887 238.21 726.887 237.62 Q 726.887 237.007 727.307 236.599 Q 727.727 236.19 728.362 236.19 Q 728.998 236.19 729.418 236.587 Q 729.838 236.985 729.838 237.575 Q 729.838 238.188 729.429 238.608 Q 729.02 239.028 728.362 239.028 Z" transform="matrix(1.005108, -0.00807, 0.013023, 1.62203, -43.121422, -125.562775)" style="fill: rgb(71, 223, 236); white-space: pre;"/>
  <path d="M 737.046 253.51 Q 735.547 253.51 734.197 253.102 Q 732.846 252.693 732.074 252.103 L 732.982 250.378 Q 733.754 250.9 734.889 251.263 Q 736.024 251.626 737.205 251.626 Q 738.725 251.626 739.395 251.195 Q 740.065 250.763 740.065 249.992 Q 740.065 249.424 739.656 249.106 Q 739.248 248.789 738.578 248.63 Q 737.908 248.471 737.091 248.346 Q 736.274 248.221 735.457 248.028 Q 734.639 247.835 733.958 247.483 Q 733.277 247.131 732.869 246.507 Q 732.46 245.883 732.46 244.839 Q 732.46 243.749 733.073 242.932 Q 733.686 242.115 734.81 241.672 Q 735.933 241.229 737.477 241.229 Q 738.657 241.229 739.872 241.513 Q 741.086 241.797 741.858 242.319 L 740.927 244.044 Q 740.11 243.499 739.225 243.295 Q 738.34 243.091 737.454 243.091 Q 736.024 243.091 735.32 243.556 Q 734.617 244.022 734.617 244.748 Q 734.617 245.361 735.037 245.69 Q 735.457 246.019 736.126 246.201 Q 736.796 246.382 737.613 246.507 Q 738.43 246.632 739.248 246.825 Q 740.065 247.018 740.734 247.358 Q 741.404 247.699 741.824 248.312 Q 742.244 248.925 742.244 249.946 Q 742.244 251.036 741.608 251.83 Q 740.973 252.625 739.815 253.068 Q 738.657 253.51 737.046 253.51 Z" transform="matrix(1.005108, -0.00807, 0.013023, 1.62203, -43.121422, -125.562775)" style="fill: rgb(71, 223, 236); white-space: pre;"/>
  <path d="M 745.285 253.374 L 745.285 240.276 Q 745.285 238.505 746.317 237.45 Q 747.35 236.394 749.257 236.394 Q 749.961 236.394 750.608 236.565 Q 751.255 236.735 751.709 237.098 L 751.05 238.755 Q 750.71 238.483 750.279 238.335 Q 749.847 238.188 749.371 238.188 Q 748.417 238.188 747.918 238.721 Q 747.418 239.255 747.418 240.299 L 747.418 241.91 L 747.464 242.909 L 747.464 253.374 Z M 743.242 243.136 L 743.242 241.343 L 750.914 241.343 L 750.914 243.136 Z" transform="matrix(1.005108, -0.00807, 0.013023, 1.62203, -43.121422, -125.562775)" style="fill: rgb(71, 223, 236); white-space: pre;"/>
  <path d="M 752.98 253.374 L 752.98 241.343 L 755.069 241.343 L 755.069 244.612 L 754.864 243.795 Q 755.364 242.546 756.544 241.888 Q 757.724 241.229 759.45 241.229 L 759.45 243.341 Q 759.313 243.318 759.189 243.318 Q 759.064 243.318 758.95 243.318 Q 757.202 243.318 756.181 244.362 Q 755.159 245.406 755.159 247.381 L 755.159 253.374 Z" transform="matrix(1.005108, -0.00807, 0.013023, 1.62203, -43.121422, -125.562775)" style="fill: rgb(71, 223, 236); white-space: pre;"/>
  <path d="M 767.341 253.51 Q 765.797 253.51 764.628 252.943 Q 763.459 252.375 762.812 251.206 Q 762.165 250.037 762.165 248.266 L 762.165 241.343 L 764.345 241.343 L 764.345 248.017 Q 764.345 249.787 765.196 250.673 Q 766.047 251.558 767.591 251.558 Q 768.726 251.558 769.566 251.093 Q 770.405 250.627 770.859 249.731 Q 771.313 248.834 771.313 247.563 L 771.313 241.343 L 773.493 241.343 L 773.493 253.374 L 771.427 253.374 L 771.427 250.128 L 771.767 250.99 Q 771.177 252.194 769.997 252.852 Q 768.816 253.51 767.341 253.51 Z" transform="matrix(1.005108, -0.00807, 0.013023, 1.62203, -43.121422, -125.562775)" style="fill: rgb(71, 223, 236); white-space: pre;"/>
  <path d="M 781.777 253.51 Q 779.961 253.51 778.962 252.534 Q 777.963 251.558 777.963 249.742 L 777.963 238.71 L 780.143 238.71 L 780.143 249.651 Q 780.143 250.627 780.631 251.149 Q 781.119 251.671 782.027 251.671 Q 783.048 251.671 783.729 251.104 L 784.41 252.67 Q 783.911 253.102 783.218 253.306 Q 782.526 253.51 781.777 253.51 Z M 775.92 243.136 L 775.92 241.343 L 783.593 241.343 L 783.593 243.136 Z" transform="matrix(1.005108, -0.00807, 0.013023, 1.62203, -43.121422, -125.562775)" style="fill: rgb(71, 223, 236); white-space: pre;"/>
  <path d="M 794.505 253.374 L 794.505 250.832 L 794.392 250.355 L 794.392 246.019 Q 794.392 244.634 793.586 243.874 Q 792.78 243.114 791.168 243.114 Q 790.101 243.114 789.08 243.465 Q 788.058 243.817 787.355 244.407 L 786.447 242.773 Q 787.377 242.024 788.683 241.627 Q 789.988 241.229 791.418 241.229 Q 793.892 241.229 795.232 242.433 Q 796.571 243.636 796.571 246.11 L 796.571 253.374 Z M 790.555 253.51 Q 789.216 253.51 788.206 253.056 Q 787.196 252.602 786.651 251.796 Q 786.106 250.99 786.106 249.969 Q 786.106 248.993 786.572 248.198 Q 787.037 247.404 788.092 246.927 Q 789.148 246.45 790.941 246.45 L 794.755 246.45 L 794.755 248.017 L 791.032 248.017 Q 789.398 248.017 788.83 248.562 Q 788.263 249.106 788.263 249.878 Q 788.263 250.763 788.966 251.297 Q 789.67 251.83 790.919 251.83 Q 792.144 251.83 793.064 251.286 Q 793.983 250.741 794.392 249.697 L 794.823 251.195 Q 794.392 252.262 793.302 252.886 Q 792.212 253.51 790.555 253.51 Z" transform="matrix(1.005108, -0.00807, 0.013023, 1.62203, -43.121422, -125.562775)" style="fill: rgb(71, 223, 236); white-space: pre;"/>
</svg>